<?xml version="1.0" standalone="no"?>
<!DOCTYPE svg PUBLIC "-//W3C//DTD SVG 20010904//EN"
 "http://www.w3.org/TR/2001/REC-SVG-20010904/DTD/svg10.dtd">
<svg version="1.0" xmlns="http://www.w3.org/2000/svg"
 width="513.000000pt" height="513.000000pt" viewBox="0 0 513.000000 513.000000"
 preserveAspectRatio="xMidYMid meet">
<metadata>
Created by potrace 1.14, written by Peter Selinger 2001-2017
</metadata>
<g transform="translate(0.000000,513.000000) scale(0.100000,-0.100000)"
fill="#000000" stroke="none">
<path d="M2655 5112 c-15 -10 -47 -62 -38 -62 4 0 -1 -6 -12 -13 -11 -9 -15
-19 -10 -28 6 -11 5 -11 -5 -2 -10 9 -18 9 -33 1 -16 -8 -19 -7 -15 3 7 21
-27 50 -42 36 -10 -9 -11 -9 -7 -1 4 7 -2 14 -13 17 -11 3 -20 0 -20 -6 0 -8
-4 -7 -9 2 -7 10 -10 10 -16 1 -4 -7 -1 -17 6 -22 12 -8 11 -9 -1 -5 -8 2 -14
12 -14 21 1 9 -2 16 -7 16 -5 0 -9 -5 -9 -11 0 -5 -4 -8 -9 -4 -12 7 -61 -15
-61 -27 0 -5 -4 -7 -8 -4 -4 2 -23 -9 -41 -25 -19 -16 -37 -29 -41 -29 -4 0
-17 -9 -29 -19 -12 -10 -45 -33 -74 -51 -54 -33 -100 -82 -100 -106 0 -8 -3
-14 -6 -14 -3 0 -12 -14 -20 -31 -8 -18 -30 -48 -51 -68 -31 -30 -50 -59 -54
-81 -1 -3 -5 -11 -9 -17 -5 -7 -6 -17 -3 -21 3 -5 -1 -29 -9 -54 -7 -26 -11
-49 -8 -52 4 -3 2 -6 -3 -6 -5 0 -10 -50 -11 -112 -1 -61 -5 -123 -9 -137 -4
-14 -8 -29 -9 -33 -2 -5 -4 -9 -5 -10 -1 -2 -3 -14 -5 -28 -1 -14 -4 -38 -8
-55 -3 -16 -9 -50 -12 -75 -5 -37 -32 -138 -40 -148 -1 -1 -21 -5 -44 -8 -49
-7 -75 -12 -78 -14 -2 -2 -21 -4 -43 -5 -22 -1 -41 -3 -42 -5 -2 -1 -11 -3
-20 -5 -57 -11 -88 -28 -94 -52 -7 -24 1 -147 12 -194 37 -158 38 -170 26
-178 -20 -12 -20 -100 -1 -175 10 -39 23 -72 29 -74 5 -2 8 -8 5 -12 -3 -5 4
-14 16 -21 22 -11 34 -14 99 -23 19 -3 49 -8 66 -11 l32 -5 2 -88 c2 -113 3
-122 35 -219 23 -71 25 -84 13 -106 -18 -35 -75 -95 -134 -142 -27 -21 -51
-42 -54 -45 -3 -3 -34 -30 -70 -60 -120 -102 -176 -164 -206 -225 -16 -33 -33
-66 -39 -74 -25 -35 -93 -94 -125 -107 -19 -9 -43 -20 -54 -26 -10 -5 -28 -11
-39 -14 -11 -2 -24 -9 -27 -15 -4 -6 -10 -10 -14 -8 -8 2 -167 -71 -176 -81
-3 -3 -33 -19 -67 -35 -35 -16 -63 -33 -63 -37 0 -4 -5 -8 -11 -8 -14 0 -309
-171 -359 -208 -125 -92 -155 -200 -96 -345 39 -96 41 -127 10 -200 -14 -34
-32 -87 -40 -117 -8 -30 -23 -73 -34 -96 -17 -38 -33 -106 -47 -199 -3 -22 -9
-48 -14 -57 -5 -9 -9 -136 -9 -282 0 -206 3 -266 13 -267 44 -4 54 -3 69 3 9
5 19 4 23 -1 3 -6 17 -6 35 -1 19 5 30 5 30 -1 0 -6 6 -7 12 -3 18 11 48 12
54 2 3 -4 13 -4 23 2 10 5 21 7 24 3 4 -3 29 -5 57 -4 27 1 57 1 65 1 8 0 22
0 30 0 21 0 73 0 88 0 6 0 30 1 52 3 22 2 46 -1 53 -6 7 -6 12 -6 12 0 0 10
60 10 78 -1 7 -4 12 -3 12 1 0 5 19 8 43 6 55 -4 56 -4 95 0 18 2 35 0 38 -5
3 -4 13 -5 22 0 21 9 43 9 59 -1 6 -4 14 -4 16 1 6 9 79 8 95 -2 7 -4 12 -3
12 2 0 11 250 10 268 -1 7 -5 12 -3 12 3 0 7 6 8 19 1 12 -7 602 -11 1735 -11
l1717 0 -1 632 -2 633 -24 42 c-13 23 -24 49 -24 57 0 9 -4 16 -9 16 -5 0 -8
18 -7 40 2 22 -1 43 -6 46 -5 3 -7 12 -4 20 3 8 0 14 -6 14 -6 0 -9 3 -5 6 3
4 1 12 -6 20 -28 32 -37 44 -37 52 0 4 -14 19 -30 32 -17 14 -36 30 -43 35 -7
6 -34 28 -62 50 -27 22 -59 48 -70 58 -11 10 -40 31 -65 45 -25 14 -46 30 -48
34 -2 4 -8 8 -12 8 -5 0 -44 26 -87 58 -87 64 -108 76 -173 93 -57 16 -59 16
-98 23 -91 17 -182 69 -247 140 -11 12 -45 41 -75 66 -71 57 -340 331 -340
347 0 6 9 28 21 47 12 20 18 36 14 36 -4 0 -3 6 3 13 5 6 16 39 23 72 14 65
15 71 19 83 3 11 5 21 14 87 15 113 24 135 57 142 16 3 32 10 35 14 3 5 10 7
15 4 5 -4 9 -1 9 5 0 6 5 8 10 5 6 -3 10 -2 10 2 0 8 104 93 114 93 3 0 28 23
56 50 28 28 55 50 61 50 5 0 8 4 5 9 -4 5 -2 11 4 13 6 2 12 17 14 33 2 17 7
53 10 80 4 28 8 105 10 173 4 98 1 132 -13 171 -20 58 -39 84 -57 77 -7 -3
-14 -1 -16 4 -3 9 -37 16 -158 30 -113 14 -155 19 -155 20 0 0 -1 17 -3 38 -5
60 0 226 7 235 1 1 4 22 6 47 3 25 9 66 13 93 6 29 6 47 0 47 -5 0 -7 3 -4 8
2 4 -4 31 -14 59 -10 28 -15 54 -12 57 3 3 1 6 -4 6 -6 0 -16 16 -24 35 -8 19
-17 35 -22 35 -4 0 -8 7 -8 16 0 9 -13 30 -30 46 -16 15 -30 30 -30 33 0 2
-18 22 -40 44 -22 22 -40 46 -40 55 0 8 -4 17 -8 20 -5 3 -14 29 -21 59 -6 29
-20 59 -30 67 -11 7 -17 19 -14 27 3 7 -2 13 -11 13 -9 0 -16 5 -16 10 0 6 -7
10 -16 10 -9 0 -40 13 -70 30 -30 16 -54 24 -54 18 0 -7 -4 -7 -12 0 -7 5 -26
11 -43 13 -16 2 -34 6 -40 10 -5 4 -41 6 -80 5 -57 -1 -75 3 -103 22 -18 12
-31 18 -27 13 3 -6 -7 -4 -22 4 -15 8 -43 18 -61 21 -18 3 -35 10 -38 16 -3 5
-12 4 -20 -3 -11 -9 -14 -9 -14 0 0 7 -4 9 -10 6 -5 -3 -10 -1 -10 5 0 6 -4 9
-9 6 -5 -4 -11 -2 -13 4 -1 5 -8 6 -13 2z m-249 -80 c-3 -2 -18 -6 -33 -8 -26
-2 -27 -2 -10 11 17 12 55 10 43 -3z m174 -36 c0 -2 -8 -10 -17 -17 -16 -13
-17 -12 -4 4 13 16 21 21 21 13z"/>
</g>
</svg>
